<mxfile host="app.diagrams.net" modified="2023-09-04T16:24:04.923Z" agent="Mozilla/5.0 (Windows NT 10.0; Win64; x64) AppleWebKit/537.36 (KHTML, like Gecko) Chrome/116.0.0.0 Safari/537.36" etag="G8EBEUJH8y9qekp0B7aq" version="21.7.2" type="device" pages="2">
  <diagram name="Data Structure and Algo" id="cmYec623V-D8ZxnN9g_8">
    <mxGraphModel dx="3659" dy="1095" grid="0" gridSize="10" guides="1" tooltips="1" connect="1" arrows="1" fold="1" page="0" pageScale="1" pageWidth="850" pageHeight="1100" background="none" math="0" shadow="1">
      <root>
        <mxCell id="0" />
        <mxCell id="1" parent="0" />
        <UserObject label="&lt;p style=&quot;line-height: 260%;&quot;&gt;&lt;b&gt;&lt;font data-font-src=&quot;https://fonts.googleapis.com/css?family=Roboto&quot; face=&quot;Roboto&quot; style=&quot;font-size: 18px;&quot;&gt;DATA STRUCTURE AND ALGORITHM&lt;/font&gt;&lt;/b&gt;&lt;/p&gt;" link="data:page/id,cmYec623V-D8ZxnN9g_8" id="KO7iDOYxRLkejRy-OGrP-12">
          <mxCell style="rounded=1;whiteSpace=wrap;html=1;fillColor=#d5e8d4;strokeColor=none;shadow=1;treeFolding=1;editable=1;movable=1;resizable=1;rotatable=1;deletable=1;locked=0;connectable=1;" parent="1" vertex="1">
            <mxGeometry x="-2105" y="-121" width="197" height="94" as="geometry" />
          </mxCell>
        </UserObject>
        <UserObject label="&lt;p style=&quot;line-height: 142%;&quot;&gt;&lt;b&gt;&lt;font data-font-src=&quot;https://fonts.googleapis.com/css?family=Roboto&quot; face=&quot;Roboto&quot; style=&quot;font-size: 15px;&quot;&gt;Time and Space Complexity&lt;/font&gt;&lt;/b&gt;&lt;/p&gt;" id="KO7iDOYxRLkejRy-OGrP-13">
          <mxCell style="rounded=1;whiteSpace=wrap;html=1;fillColor=#dae8fc;strokeColor=none;shadow=1;treeFolding=0;movable=1;resizable=1;rotatable=1;deletable=1;editable=1;locked=0;connectable=1;" parent="1" vertex="1">
            <mxGeometry x="-1983" y="-4" width="129" height="94" as="geometry" />
          </mxCell>
        </UserObject>
        <UserObject label="&lt;p style=&quot;line-height: 142%;&quot;&gt;&lt;b&gt;&lt;font data-font-src=&quot;https://fonts.googleapis.com/css?family=Roboto&quot; face=&quot;Roboto&quot; style=&quot;font-size: 15px;&quot;&gt;Arrays&lt;/font&gt;&lt;/b&gt;&lt;/p&gt;" id="KO7iDOYxRLkejRy-OGrP-14">
          <mxCell style="rounded=1;whiteSpace=wrap;html=1;fillColor=#dae8fc;strokeColor=none;shadow=1;treeFolding=0;movable=1;resizable=1;rotatable=1;deletable=1;editable=1;locked=0;connectable=1;" parent="1" vertex="1">
            <mxGeometry x="-1835" y="-4" width="129" height="94" as="geometry" />
          </mxCell>
        </UserObject>
        <UserObject label="&lt;p style=&quot;line-height: 142%;&quot;&gt;&lt;b&gt;&lt;font data-font-src=&quot;https://fonts.googleapis.com/css?family=Roboto&quot; face=&quot;Roboto&quot; style=&quot;font-size: 15px;&quot;&gt;Bit Manipulation&lt;/font&gt;&lt;/b&gt;&lt;/p&gt;" id="KO7iDOYxRLkejRy-OGrP-15">
          <mxCell style="rounded=1;whiteSpace=wrap;html=1;fillColor=#dae8fc;strokeColor=none;shadow=1;treeFolding=0;movable=1;resizable=1;rotatable=1;deletable=1;editable=1;locked=0;connectable=1;" parent="1" vertex="1">
            <mxGeometry x="-1682" y="-4" width="129" height="94" as="geometry" />
          </mxCell>
        </UserObject>
        <UserObject label="&lt;p style=&quot;line-height: 142%;&quot;&gt;&lt;b&gt;&lt;font data-font-src=&quot;https://fonts.googleapis.com/css?family=Roboto&quot; face=&quot;Roboto&quot; style=&quot;font-size: 15px;&quot;&gt;Modular Maths&lt;/font&gt;&lt;/b&gt;&lt;/p&gt;" id="KO7iDOYxRLkejRy-OGrP-16">
          <mxCell style="rounded=1;whiteSpace=wrap;html=1;fillColor=#dae8fc;strokeColor=none;shadow=1;treeFolding=0;movable=1;resizable=1;rotatable=1;deletable=1;editable=1;locked=0;connectable=1;" parent="1" vertex="1">
            <mxGeometry x="-1529" y="-4" width="129" height="94" as="geometry" />
          </mxCell>
        </UserObject>
        <UserObject label="&lt;p style=&quot;line-height: 142%;&quot;&gt;&lt;b&gt;&lt;font data-font-src=&quot;https://fonts.googleapis.com/css?family=Roboto&quot; face=&quot;Roboto&quot; style=&quot;font-size: 15px;&quot;&gt;Sorting&lt;/font&gt;&lt;/b&gt;&lt;/p&gt;" id="KO7iDOYxRLkejRy-OGrP-17">
          <mxCell style="rounded=1;whiteSpace=wrap;html=1;fillColor=#dae8fc;strokeColor=none;shadow=1;treeFolding=0;movable=1;resizable=1;rotatable=1;deletable=1;editable=1;locked=0;connectable=1;" parent="1" vertex="1">
            <mxGeometry x="-1983" y="112" width="129" height="94" as="geometry" />
          </mxCell>
        </UserObject>
        <UserObject label="&lt;p style=&quot;line-height: 142%;&quot;&gt;&lt;b&gt;&lt;font data-font-src=&quot;https://fonts.googleapis.com/css?family=Roboto&quot; face=&quot;Roboto&quot; style=&quot;font-size: 15px;&quot;&gt;String&lt;/font&gt;&lt;/b&gt;&lt;/p&gt;" id="KO7iDOYxRLkejRy-OGrP-18">
          <mxCell style="rounded=1;whiteSpace=wrap;html=1;fillColor=#dae8fc;strokeColor=none;shadow=1;treeFolding=0;movable=1;resizable=1;rotatable=1;deletable=1;editable=1;locked=0;connectable=1;" parent="1" vertex="1">
            <mxGeometry x="-1835" y="112" width="129" height="94" as="geometry" />
          </mxCell>
        </UserObject>
        <UserObject label="&lt;p style=&quot;line-height: 142%;&quot;&gt;&lt;b&gt;&lt;font data-font-src=&quot;https://fonts.googleapis.com/css?family=Roboto&quot; face=&quot;Roboto&quot; style=&quot;font-size: 15px;&quot;&gt;Hashing&lt;/font&gt;&lt;/b&gt;&lt;/p&gt;" id="KO7iDOYxRLkejRy-OGrP-19">
          <mxCell style="rounded=1;whiteSpace=wrap;html=1;fillColor=#dae8fc;strokeColor=none;shadow=1;treeFolding=0;movable=1;resizable=1;rotatable=1;deletable=1;editable=1;locked=0;connectable=1;" parent="1" vertex="1">
            <mxGeometry x="-1682" y="112" width="129" height="94" as="geometry" />
          </mxCell>
        </UserObject>
        <UserObject label="&lt;p style=&quot;line-height: 142%;&quot;&gt;&lt;b&gt;&lt;font data-font-src=&quot;https://fonts.googleapis.com/css?family=Roboto&quot; face=&quot;Roboto&quot; style=&quot;font-size: 15px;&quot;&gt;Recursion&lt;/font&gt;&lt;/b&gt;&lt;/p&gt;" id="KO7iDOYxRLkejRy-OGrP-20">
          <mxCell style="rounded=1;whiteSpace=wrap;html=1;fillColor=#dae8fc;strokeColor=none;shadow=1;treeFolding=0;movable=1;resizable=1;rotatable=1;deletable=1;editable=1;locked=0;connectable=1;" parent="1" vertex="1">
            <mxGeometry x="-1529" y="112" width="129" height="94" as="geometry" />
          </mxCell>
        </UserObject>
        <UserObject label="&lt;p style=&quot;line-height: 142%;&quot;&gt;&lt;b&gt;&lt;font data-font-src=&quot;https://fonts.googleapis.com/css?family=Roboto&quot; face=&quot;Roboto&quot; style=&quot;font-size: 15px;&quot;&gt;Object Oriented Class&lt;/font&gt;&lt;/b&gt;&lt;/p&gt;" id="KO7iDOYxRLkejRy-OGrP-21">
          <mxCell style="rounded=1;whiteSpace=wrap;html=1;fillColor=#dae8fc;strokeColor=none;shadow=1;treeFolding=0;movable=1;resizable=1;rotatable=1;deletable=1;editable=1;locked=0;connectable=1;" parent="1" vertex="1">
            <mxGeometry x="-1983" y="230" width="129" height="94" as="geometry" />
          </mxCell>
        </UserObject>
        <UserObject label="&lt;p style=&quot;line-height: 142%;&quot;&gt;&lt;b&gt;&lt;font data-font-src=&quot;https://fonts.googleapis.com/css?family=Roboto&quot; face=&quot;Roboto&quot; style=&quot;font-size: 15px;&quot;&gt;Linked List&lt;/font&gt;&lt;/b&gt;&lt;/p&gt;" id="KO7iDOYxRLkejRy-OGrP-22">
          <mxCell style="rounded=1;whiteSpace=wrap;html=1;fillColor=#dae8fc;strokeColor=none;shadow=1;treeFolding=0;movable=1;resizable=1;rotatable=1;deletable=1;editable=1;locked=0;connectable=1;" parent="1" vertex="1">
            <mxGeometry x="-1835" y="230" width="129" height="94" as="geometry" />
          </mxCell>
        </UserObject>
        <UserObject label="&lt;p style=&quot;line-height: 142%;&quot;&gt;&lt;b&gt;&lt;font data-font-src=&quot;https://fonts.googleapis.com/css?family=Roboto&quot; face=&quot;Roboto&quot; style=&quot;font-size: 15px;&quot;&gt;Tree&lt;/font&gt;&lt;/b&gt;&lt;/p&gt;" id="KO7iDOYxRLkejRy-OGrP-23">
          <mxCell style="rounded=1;whiteSpace=wrap;html=1;fillColor=#dae8fc;strokeColor=none;shadow=1;treeFolding=0;movable=1;resizable=1;rotatable=1;deletable=1;editable=1;locked=0;connectable=1;" parent="1" vertex="1">
            <mxGeometry x="-1682" y="230" width="129" height="94" as="geometry" />
          </mxCell>
        </UserObject>
        <UserObject label="&lt;p style=&quot;line-height: 142%;&quot;&gt;&lt;font data-font-src=&quot;https://fonts.googleapis.com/css?family=Roboto&quot; face=&quot;Roboto&quot; style=&quot;font-size: 15px;&quot;&gt;Interview Tricks&lt;/font&gt;&lt;/p&gt;" link="data:page/id,hgRFMdat1AQEbLYRxgLS" id="KO7iDOYxRLkejRy-OGrP-24">
          <mxCell style="rounded=1;whiteSpace=wrap;html=1;shadow=1;treeFolding=1;movable=1;resizable=1;rotatable=1;deletable=1;editable=1;locked=0;connectable=1;strokeColor=none;fillColor=#f8cecc;" parent="1" vertex="1">
            <mxGeometry x="-1871.0000000000005" y="-110" width="129" height="39" as="geometry" />
          </mxCell>
        </UserObject>
        <UserObject label="&lt;p style=&quot;line-height: 142%;&quot;&gt;&lt;font face=&quot;Roboto&quot;&gt;&lt;span style=&quot;font-size: 15px;&quot;&gt;&lt;b&gt;Binary Search&lt;/b&gt;&lt;/span&gt;&lt;/font&gt;&lt;/p&gt;" id="c8NeDPploXMvqBzqzUHg-1">
          <mxCell style="rounded=1;whiteSpace=wrap;html=1;fillColor=#dae8fc;strokeColor=none;shadow=1;treeFolding=0;movable=1;resizable=1;rotatable=1;deletable=1;editable=1;locked=0;connectable=1;" vertex="1" parent="1">
            <mxGeometry x="-1983" y="372" width="129" height="94" as="geometry" />
          </mxCell>
        </UserObject>
      </root>
    </mxGraphModel>
  </diagram>
  <diagram name="Interview tricks" id="hgRFMdat1AQEbLYRxgLS">
    <mxGraphModel dx="1834" dy="782" grid="0" gridSize="10" guides="1" tooltips="1" connect="1" arrows="1" fold="1" page="0" pageScale="1" pageWidth="850" pageHeight="1100" math="0" shadow="0">
      <root>
        <mxCell id="0" />
        <mxCell id="1" parent="0" />
        <mxCell id="F4ZC5nXCLhVT-I1Y7pf9-1" value="&lt;p style=&quot;line-height: 142%;&quot;&gt;&lt;b&gt;&lt;font data-font-src=&quot;https://fonts.googleapis.com/css?family=Roboto&quot; face=&quot;Roboto&quot; style=&quot;font-size: 15px;&quot;&gt;Interview Tricks&lt;/font&gt;&lt;/b&gt;&lt;/p&gt;" style="rounded=1;whiteSpace=wrap;html=1;fillColor=#dae8fc;strokeColor=none;shadow=1;treeFolding=1;movable=1;resizable=1;rotatable=1;deletable=1;editable=1;locked=0;connectable=1;" parent="1" vertex="1">
          <mxGeometry x="234" y="62" width="129" height="94" as="geometry" />
        </mxCell>
        <mxCell id="F4ZC5nXCLhVT-I1Y7pf9-2" style="edgeStyle=orthogonalEdgeStyle;rounded=0;orthogonalLoop=1;jettySize=auto;html=1;" parent="1" source="F4ZC5nXCLhVT-I1Y7pf9-3" target="F4ZC5nXCLhVT-I1Y7pf9-1" edge="1">
          <mxGeometry relative="1" as="geometry" />
        </mxCell>
        <UserObject label="&lt;p style=&quot;line-height: 260%;&quot;&gt;&lt;b&gt;&lt;font data-font-src=&quot;https://fonts.googleapis.com/css?family=Roboto&quot; face=&quot;Roboto&quot; style=&quot;font-size: 18px;&quot;&gt;DATA STRUCTURE AND ALGORITHM&lt;/font&gt;&lt;/b&gt;&lt;/p&gt;" link="data:page/id,KQ3RXT452Op9s6PRzBAU" id="F4ZC5nXCLhVT-I1Y7pf9-3">
          <mxCell style="rounded=1;whiteSpace=wrap;html=1;fillColor=#d5e8d4;strokeColor=none;shadow=1;treeFolding=1;editable=1;movable=1;resizable=1;rotatable=1;deletable=1;locked=0;connectable=1;" parent="1" vertex="1">
            <mxGeometry x="11" y="62" width="197" height="94" as="geometry" />
          </mxCell>
        </UserObject>
        <mxCell id="OqBqEW8hXMeWEtkxkb-W-1" value="Pattern" style="swimlane;whiteSpace=wrap;html=1;fillColor=#b1ddf0;strokeColor=default;swimlaneFillColor=#FFFFFF;gradientColor=none;" parent="1" vertex="1">
          <mxGeometry x="-140" y="362" width="421" height="226" as="geometry" />
        </mxCell>
        <mxCell id="OqBqEW8hXMeWEtkxkb-W-2" value="1. Intro for 5 min at max&lt;br&gt;&lt;br&gt;2. They will give you question&lt;br&gt;&lt;span style=&quot;white-space: pre;&quot;&gt;&#x9;&lt;/span&gt;&lt;br&gt;&lt;span style=&quot;white-space: pre;&quot;&gt;&#x9;&lt;/span&gt;a. Take 2 to 3 minutes to understand the question (Don&#39;t be in hurry)&lt;br&gt;&lt;br&gt;&lt;span style=&quot;white-space: pre;&quot;&gt;&#x9;&lt;/span&gt;b. Ask clarifying question and edge cases &lt;b&gt;**IMPORTANT**&lt;br&gt;&lt;/b&gt;&lt;br&gt;&lt;span style=&quot;white-space: pre;&quot;&gt;&#x9;&lt;/span&gt;c. Tell them brute force &lt;b&gt;Quickly ( in 5 minutes ), tell TC / SC&lt;br&gt;&lt;/b&gt;&lt;br&gt;&lt;span style=&quot;white-space: pre;&quot;&gt;&#x9;&lt;/span&gt;d. Think of optimized solution and tell TC and SC" style="text;html=1;strokeColor=none;fillColor=none;align=left;verticalAlign=middle;whiteSpace=wrap;rounded=0;" parent="OqBqEW8hXMeWEtkxkb-W-1" vertex="1">
          <mxGeometry x="17" y="40" width="405" height="186" as="geometry" />
        </mxCell>
        <mxCell id="OqBqEW8hXMeWEtkxkb-W-4" value="&lt;p style=&quot;line-height: 142%;&quot;&gt;&lt;font data-font-src=&quot;https://fonts.googleapis.com/css?family=Roboto&quot; face=&quot;Roboto&quot; style=&quot;font-size: 15px;&quot;&gt;Prefer iterative method over resursive&lt;/font&gt;&lt;/p&gt;" style="rounded=1;whiteSpace=wrap;html=1;shadow=1;treeFolding=1;movable=1;resizable=1;rotatable=1;deletable=1;editable=1;locked=0;connectable=1;strokeColor=none;fillColor=#f8cecc;" parent="1" vertex="1">
          <mxGeometry x="369" y="359" width="233" height="117" as="geometry" />
        </mxCell>
      </root>
    </mxGraphModel>
  </diagram>
</mxfile>
